# 3D Face Model for Student: STUDENT01
# Generated 3D Facial Mesh Surface

v -100.0000 120.0000 -0.0000
v -86.6667 120.0000 -0.0000
v -73.3333 120.0000 -0.0000
v -60.0000 120.0000 -0.0000
v -46.6667 120.0000 -0.0000
v -33.3333 120.0000 -0.0000
v -20.0000 120.0000 -0.0000
v -6.6667 120.0000 -0.0000
v 6.6667 120.0000 -0.0000
v 20.0000 120.0000 -0.0000
v 33.3333 120.0000 -0.0000
v 46.6667 120.0000 -0.0000
v 60.0000 120.0000 -0.0000
v 73.3333 120.0000 -0.0000
v 86.6667 120.0000 -0.0000
v 100.0000 120.0000 -0.0000
v -100.0000 104.0000 -0.0000
v -86.6667 104.0000 -0.0000
v -73.3333 104.0000 -0.0000
v -60.0000 104.0000 -0.0000
v -46.6667 104.0000 -0.0000
v -33.3333 104.0000 -0.0000
v -20.0000 104.0000 -0.0000
v -6.6667 104.0000 -0.0000
v 6.6667 104.0000 -0.0000
v 20.0000 104.0000 -0.0000
v 33.3333 104.0000 -0.0000
v 46.6667 104.0000 -0.0000
v 60.0000 104.0000 -0.0000
v 73.3333 104.0000 -0.0000
v 86.6667 104.0000 -0.0000
v 100.0000 104.0000 -0.0000
v -100.0000 88.0000 -0.0000
v -86.6667 88.0000 -0.0000
v -73.3333 88.0000 -0.0000
v -60.0000 88.0000 -0.0000
v -46.6667 88.0000 -0.0000
v -33.3333 88.0000 -0.0000
v -20.0000 88.0000 -0.0000
v -6.6667 88.0000 -0.0000
v 6.6667 88.0000 -0.0000
v 20.0000 88.0000 -0.0000
v 33.3333 88.0000 -0.0000
v 46.6667 88.0000 -0.0000
v 60.0000 88.0000 -0.0000
v 73.3333 88.0000 -0.0000
v 86.6667 88.0000 -0.0000
v 100.0000 88.0000 -0.0000
v -100.0000 72.0000 -0.0000
v -86.6667 72.0000 -0.0000
v -73.3333 72.0000 -0.0000
v -60.0000 72.0000 -0.0000
v -46.6667 72.0000 -0.0000
v -33.3333 72.0000 -0.0000
v -20.0000 72.0000 -0.0000
v -6.6667 72.0000 -0.0000
v 6.6667 72.0000 -0.0000
v 20.0000 72.0000 -0.0000
v 33.3333 72.0000 -0.0000
v 46.6667 72.0000 -0.0000
v 60.0000 72.0000 -0.0000
v 73.3333 72.0000 -0.0000
v 86.6667 72.0000 -0.0000
v 100.0000 72.0000 -0.0000
v -100.0000 56.0000 -0.0000
v -86.6667 56.0000 -0.0000
v -73.3333 56.0000 -0.0000
v -60.0000 56.0000 -0.0000
v -46.6667 56.0000 -0.0000
v -33.3333 56.0000 -0.0000
v -20.0000 56.0000 -0.0000
v -6.6667 56.0000 -0.0000
v 6.6667 56.0000 -0.0000
v 20.0000 56.0000 -0.0000
v 33.3333 56.0000 -0.0000
v 46.6667 56.0000 -0.0000
v 60.0000 56.0000 -0.0000
v 73.3333 56.0000 -0.0000
v 86.6667 56.0000 -0.0000
v 100.0000 56.0000 -0.0000
v -100.0000 40.0000 -0.0000
v -86.6667 40.0000 -0.0000
v -73.3333 40.0000 -0.0000
v -60.0000 40.0000 -0.0000
v -46.6667 40.0000 -0.0000
v -33.3333 40.0000 -0.0000
v -20.0000 40.0000 -0.0000
v -6.6667 40.0000 -0.0000
v 6.6667 40.0000 -0.0000
v 20.0000 40.0000 -0.0000
v 33.3333 40.0000 -0.0000
v 46.6667 40.0000 -0.0000
v 60.0000 40.0000 -0.0000
v 73.3333 40.0000 -0.0000
v 86.6667 40.0000 -0.0000
v 100.0000 40.0000 -0.0000
v -100.0000 24.0000 -0.0000
v -86.6667 24.0000 -0.0000
v -73.3333 24.0000 -0.0000
v -60.0000 24.0000 -0.0000
v -46.6667 24.0000 -0.0000
v -33.3333 24.0000 -0.0000
v -20.0000 24.0000 -0.0000
v -6.6667 24.0000 -0.0000
v 6.6667 24.0000 -0.0000
v 20.0000 24.0000 -0.0000
v 33.3333 24.0000 -0.0000
v 46.6667 24.0000 -0.0000
v 60.0000 24.0000 -0.0000
v 73.3333 24.0000 -0.0000
v 86.6667 24.0000 -0.0000
v 100.0000 24.0000 -0.0000
v -100.0000 8.0000 -0.0000
v -86.6667 8.0000 -0.0000
v -73.3333 8.0000 -0.0000
v -60.0000 8.0000 -0.0000
v -46.6667 8.0000 -0.0000
v -33.3333 8.0000 -0.0000
v -20.0000 8.0000 -0.0000
v -6.6667 8.0000 -0.0000
v 6.6667 8.0000 -0.0000
v 20.0000 8.0000 -0.0000
v 33.3333 8.0000 -0.0000
v 46.6667 8.0000 -0.0000
v 60.0000 8.0000 -0.0000
v 73.3333 8.0000 -0.0000
v 86.6667 8.0000 -0.0000
v 100.0000 8.0000 -0.0000
v -100.0000 -8.0000 -0.0000
v -86.6667 -8.0000 -0.0000
v -73.3333 -8.0000 -0.0000
v -60.0000 -8.0000 -0.0000
v -46.6667 -8.0000 -0.0000
v -33.3333 -8.0000 -0.0000
v -20.0000 -8.0000 -0.0000
v -6.6667 -8.0000 -0.0000
v 6.6667 -8.0000 -0.0000
v 20.0000 -8.0000 -0.0000
v 33.3333 -8.0000 -0.0000
v 46.6667 -8.0000 -0.0000
v 60.0000 -8.0000 -0.0000
v 73.3333 -8.0000 -0.0000
v 86.6667 -8.0000 -0.0000
v 100.0000 -8.0000 -0.0000
v -100.0000 -24.0000 -0.0000
v -86.6667 -24.0000 -0.0000
v -73.3333 -24.0000 -0.0000
v -60.0000 -24.0000 -0.0000
v -46.6667 -24.0000 -0.0000
v -33.3333 -24.0000 -0.0000
v -20.0000 -24.0000 -0.0000
v -6.6667 -24.0000 -0.0000
v 6.6667 -24.0000 -0.0000
v 20.0000 -24.0000 -0.0000
v 33.3333 -24.0000 -0.0000
v 46.6667 -24.0000 -0.0000
v 60.0000 -24.0000 -0.0000
v 73.3333 -24.0000 -0.0000
v 86.6667 -24.0000 -0.0000
v 100.0000 -24.0000 -0.0000
v -100.0000 -40.0000 -0.0000
v -86.6667 -40.0000 -0.0000
v -73.3333 -40.0000 -0.0000
v -60.0000 -40.0000 -0.0000
v -46.6667 -40.0000 -0.0000
v -33.3333 -40.0000 -0.0000
v -20.0000 -40.0000 -0.0000
v -6.6667 -40.0000 -0.0000
v 6.6667 -40.0000 -0.0000
v 20.0000 -40.0000 -0.0000
v 33.3333 -40.0000 -0.0000
v 46.6667 -40.0000 -0.0000
v 60.0000 -40.0000 -0.0000
v 73.3333 -40.0000 -0.0000
v 86.6667 -40.0000 -0.0000
v 100.0000 -40.0000 -0.0000
v -100.0000 -56.0000 -0.0000
v -86.6667 -56.0000 -0.0000
v -73.3333 -56.0000 -0.0000
v -60.0000 -56.0000 -0.0000
v -46.6667 -56.0000 -0.0000
v -33.3333 -56.0000 -0.0000
v -20.0000 -56.0000 -0.0000
v -6.6667 -56.0000 -0.0000
v 6.6667 -56.0000 -0.0000
v 20.0000 -56.0000 -0.0000
v 33.3333 -56.0000 -0.0000
v 46.6667 -56.0000 -0.0000
v 60.0000 -56.0000 -0.0000
v 73.3333 -56.0000 -0.0000
v 86.6667 -56.0000 -0.0000
v 100.0000 -56.0000 -0.0000
v -100.0000 -72.0000 -0.0000
v -86.6667 -72.0000 -0.0000
v -73.3333 -72.0000 -0.0000
v -60.0000 -72.0000 -0.0000
v -46.6667 -72.0000 -0.0000
v -33.3333 -72.0000 -0.0000
v -20.0000 -72.0000 -0.0000
v -6.6667 -72.0000 -0.0000
v 6.6667 -72.0000 -0.0000
v 20.0000 -72.0000 -0.0000
v 33.3333 -72.0000 -0.0000
v 46.6667 -72.0000 -0.0000
v 60.0000 -72.0000 -0.0000
v 73.3333 -72.0000 -0.0000
v 86.6667 -72.0000 -0.0000
v 100.0000 -72.0000 -0.0000
v -100.0000 -88.0000 -0.0000
v -86.6667 -88.0000 -0.0000
v -73.3333 -88.0000 -0.0000
v -60.0000 -88.0000 -0.0000
v -46.6667 -88.0000 -0.0000
v -33.3333 -88.0000 -0.0000
v -20.0000 -88.0000 -0.0000
v -6.6667 -88.0000 -0.0000
v 6.6667 -88.0000 -0.0000
v 20.0000 -88.0000 -0.0000
v 33.3333 -88.0000 -0.0000
v 46.6667 -88.0000 -0.0000
v 60.0000 -88.0000 -0.0000
v 73.3333 -88.0000 -0.0000
v 86.6667 -88.0000 -0.0000
v 100.0000 -88.0000 -0.0000
v -100.0000 -104.0000 -0.0000
v -86.6667 -104.0000 -0.0000
v -73.3333 -104.0000 -0.0000
v -60.0000 -104.0000 -0.0000
v -46.6667 -104.0000 -0.0000
v -33.3333 -104.0000 -0.0000
v -20.0000 -104.0000 -0.0000
v -6.6667 -104.0000 -0.0000
v 6.6667 -104.0000 -0.0000
v 20.0000 -104.0000 -0.0000
v 33.3333 -104.0000 -0.0000
v 46.6667 -104.0000 -0.0000
v 60.0000 -104.0000 -0.0000
v 73.3333 -104.0000 -0.0000
v 86.6667 -104.0000 -0.0000
v 100.0000 -104.0000 -0.0000
v -100.0000 -120.0000 -0.0000
v -86.6667 -120.0000 -0.0000
v -73.3333 -120.0000 -0.0000
v -60.0000 -120.0000 -0.0000
v -46.6667 -120.0000 -0.0000
v -33.3333 -120.0000 -0.0000
v -20.0000 -120.0000 -0.0000
v -6.6667 -120.0000 -0.0000
v 6.6667 -120.0000 -0.0000
v 20.0000 -120.0000 -0.0000
v 33.3333 -120.0000 -0.0000
v 46.6667 -120.0000 -0.0000
v 60.0000 -120.0000 -0.0000
v 73.3333 -120.0000 -0.0000
v 86.6667 -120.0000 -0.0000
v 100.0000 -120.0000 -0.0000
v -50.0000 60.0000 -15.0000
v 50.0000 60.0000 -15.0000
v 0.0000 -0.0000 -15.0000
v -30.0000 -60.0000 -15.0000
v 30.0000 -60.0000 -15.0000

# Triangles
f 1 2 17
f 2 18 17
f 2 3 18
f 3 19 18
f 3 4 19
f 4 20 19
f 4 5 20
f 5 21 20
f 5 6 21
f 6 22 21
f 6 7 22
f 7 23 22
f 7 8 23
f 8 24 23
f 8 9 24
f 9 25 24
f 9 10 25
f 10 26 25
f 10 11 26
f 11 27 26
f 11 12 27
f 12 28 27
f 12 13 28
f 13 29 28
f 13 14 29
f 14 30 29
f 14 15 30
f 15 31 30
f 15 16 31
f 16 32 31
f 17 18 33
f 18 34 33
f 18 19 34
f 19 35 34
f 19 20 35
f 20 36 35
f 20 21 36
f 21 37 36
f 21 22 37
f 22 38 37
f 22 23 38
f 23 39 38
f 23 24 39
f 24 40 39
f 24 25 40
f 25 41 40
f 25 26 41
f 26 42 41
f 26 27 42
f 27 43 42
f 27 28 43
f 28 44 43
f 28 29 44
f 29 45 44
f 29 30 45
f 30 46 45
f 30 31 46
f 31 47 46
f 31 32 47
f 32 48 47
f 33 34 49
f 34 50 49
f 34 35 50
f 35 51 50
f 35 36 51
f 36 52 51
f 36 37 52
f 37 53 52
f 37 38 53
f 38 54 53
f 38 39 54
f 39 55 54
f 39 40 55
f 40 56 55
f 40 41 56
f 41 57 56
f 41 42 57
f 42 58 57
f 42 43 58
f 43 59 58
f 43 44 59
f 44 60 59
f 44 45 60
f 45 61 60
f 45 46 61
f 46 62 61
f 46 47 62
f 47 63 62
f 47 48 63
f 48 64 63
f 49 50 65
f 50 66 65
f 50 51 66
f 51 67 66
f 51 52 67
f 52 68 67
f 52 53 68
f 53 69 68
f 53 54 69
f 54 70 69
f 54 55 70
f 55 71 70
f 55 56 71
f 56 72 71
f 56 57 72
f 57 73 72
f 57 58 73
f 58 74 73
f 58 59 74
f 59 75 74
f 59 60 75
f 60 76 75
f 60 61 76
f 61 77 76
f 61 62 77
f 62 78 77
f 62 63 78
f 63 79 78
f 63 64 79
f 64 80 79
f 65 66 81
f 66 82 81
f 66 67 82
f 67 83 82
f 67 68 83
f 68 84 83
f 68 69 84
f 69 85 84
f 69 70 85
f 70 86 85
f 70 71 86
f 71 87 86
f 71 72 87
f 72 88 87
f 72 73 88
f 73 89 88
f 73 74 89
f 74 90 89
f 74 75 90
f 75 91 90
f 75 76 91
f 76 92 91
f 76 77 92
f 77 93 92
f 77 78 93
f 78 94 93
f 78 79 94
f 79 95 94
f 79 80 95
f 80 96 95
f 81 82 97
f 82 98 97
f 82 83 98
f 83 99 98
f 83 84 99
f 84 100 99
f 84 85 100
f 85 101 100
f 85 86 101
f 86 102 101
f 86 87 102
f 87 103 102
f 87 88 103
f 88 104 103
f 88 89 104
f 89 105 104
f 89 90 105
f 90 106 105
f 90 91 106
f 91 107 106
f 91 92 107
f 92 108 107
f 92 93 108
f 93 109 108
f 93 94 109
f 94 110 109
f 94 95 110
f 95 111 110
f 95 96 111
f 96 112 111
f 97 98 113
f 98 114 113
f 98 99 114
f 99 115 114
f 99 100 115
f 100 116 115
f 100 101 116
f 101 117 116
f 101 102 117
f 102 118 117
f 102 103 118
f 103 119 118
f 103 104 119
f 104 120 119
f 104 105 120
f 105 121 120
f 105 106 121
f 106 122 121
f 106 107 122
f 107 123 122
f 107 108 123
f 108 124 123
f 108 109 124
f 109 125 124
f 109 110 125
f 110 126 125
f 110 111 126
f 111 127 126
f 111 112 127
f 112 128 127
f 113 114 129
f 114 130 129
f 114 115 130
f 115 131 130
f 115 116 131
f 116 132 131
f 116 117 132
f 117 133 132
f 117 118 133
f 118 134 133
f 118 119 134
f 119 135 134
f 119 120 135
f 120 136 135
f 120 121 136
f 121 137 136
f 121 122 137
f 122 138 137
f 122 123 138
f 123 139 138
f 123 124 139
f 124 140 139
f 124 125 140
f 125 141 140
f 125 126 141
f 126 142 141
f 126 127 142
f 127 143 142
f 127 128 143
f 128 144 143
f 129 130 145
f 130 146 145
f 130 131 146
f 131 147 146
f 131 132 147
f 132 148 147
f 132 133 148
f 133 149 148
f 133 134 149
f 134 150 149
f 134 135 150
f 135 151 150
f 135 136 151
f 136 152 151
f 136 137 152
f 137 153 152
f 137 138 153
f 138 154 153
f 138 139 154
f 139 155 154
f 139 140 155
f 140 156 155
f 140 141 156
f 141 157 156
f 141 142 157
f 142 158 157
f 142 143 158
f 143 159 158
f 143 144 159
f 144 160 159
f 145 146 161
f 146 162 161
f 146 147 162
f 147 163 162
f 147 148 163
f 148 164 163
f 148 149 164
f 149 165 164
f 149 150 165
f 150 166 165
f 150 151 166
f 151 167 166
f 151 152 167
f 152 168 167
f 152 153 168
f 153 169 168
f 153 154 169
f 154 170 169
f 154 155 170
f 155 171 170
f 155 156 171
f 156 172 171
f 156 157 172
f 157 173 172
f 157 158 173
f 158 174 173
f 158 159 174
f 159 175 174
f 159 160 175
f 160 176 175
f 161 162 177
f 162 178 177
f 162 163 178
f 163 179 178
f 163 164 179
f 164 180 179
f 164 165 180
f 165 181 180
f 165 166 181
f 166 182 181
f 166 167 182
f 167 183 182
f 167 168 183
f 168 184 183
f 168 169 184
f 169 185 184
f 169 170 185
f 170 186 185
f 170 171 186
f 171 187 186
f 171 172 187
f 172 188 187
f 172 173 188
f 173 189 188
f 173 174 189
f 174 190 189
f 174 175 190
f 175 191 190
f 175 176 191
f 176 192 191
f 177 178 193
f 178 194 193
f 178 179 194
f 179 195 194
f 179 180 195
f 180 196 195
f 180 181 196
f 181 197 196
f 181 182 197
f 182 198 197
f 182 183 198
f 183 199 198
f 183 184 199
f 184 200 199
f 184 185 200
f 185 201 200
f 185 186 201
f 186 202 201
f 186 187 202
f 187 203 202
f 187 188 203
f 188 204 203
f 188 189 204
f 189 205 204
f 189 190 205
f 190 206 205
f 190 191 206
f 191 207 206
f 191 192 207
f 192 208 207
f 193 194 209
f 194 210 209
f 194 195 210
f 195 211 210
f 195 196 211
f 196 212 211
f 196 197 212
f 197 213 212
f 197 198 213
f 198 214 213
f 198 199 214
f 199 215 214
f 199 200 215
f 200 216 215
f 200 201 216
f 201 217 216
f 201 202 217
f 202 218 217
f 202 203 218
f 203 219 218
f 203 204 219
f 204 220 219
f 204 205 220
f 205 221 220
f 205 206 221
f 206 222 221
f 206 207 222
f 207 223 222
f 207 208 223
f 208 224 223
f 209 210 225
f 210 226 225
f 210 211 226
f 211 227 226
f 211 212 227
f 212 228 227
f 212 213 228
f 213 229 228
f 213 214 229
f 214 230 229
f 214 215 230
f 215 231 230
f 215 216 231
f 216 232 231
f 216 217 232
f 217 233 232
f 217 218 233
f 218 234 233
f 218 219 234
f 219 235 234
f 219 220 235
f 220 236 235
f 220 221 236
f 221 237 236
f 221 222 237
f 222 238 237
f 222 223 238
f 223 239 238
f 223 224 239
f 224 240 239
f 225 226 241
f 226 242 241
f 226 227 242
f 227 243 242
f 227 228 243
f 228 244 243
f 228 229 244
f 229 245 244
f 229 230 245
f 230 246 245
f 230 231 246
f 231 247 246
f 231 232 247
f 232 248 247
f 232 233 248
f 233 249 248
f 233 234 249
f 234 250 249
f 234 235 250
f 235 251 250
f 235 236 251
f 236 252 251
f 236 237 252
f 237 253 252
f 237 238 253
f 238 254 253
f 238 239 254
f 239 255 254
f 239 240 255
f 240 256 255
